<?xml version="1.0" encoding="utf-8"?><svg viewBox="0 0 100 100" xmlns="http://www.w3.org/2000/svg" width="267px" height="267px" xmlns:xlink="http://www.w3.org/1999/xlink" style="width:100%;height:100%;background-size:initial;background-repeat-y:initial;background-repeat-x:initial;background-position-y:initial;background-position-x:initial;background-origin:initial;background-color:initial;background-clip:initial;background-attachment:initial;animation-play-state:paused" ><g class="ldl-scale" style="transform-origin:50% 50%;transform:rotate(0deg) scale(0.36, 0.36);animation-play-state:paused" ><path stroke-miterlimit="10" stroke-width="3.5" stroke="#333" fill="#a0c8d7" d="M74.5 57.1c0 23.5-11 32.9-24.6 32.9s-24.5-9.4-24.5-32.9S50 10 50 10s24.5 23.7 24.5 47.1z" style="stroke:rgb(25, 168, 230);fill:rgba(0, 0, 0, 0);animation-play-state:paused" ></path>
<path stroke-miterlimit="10" stroke-linejoin="round" stroke-linecap="round" stroke-width="3.5" stroke="#fff" fill="none" d="M38.5 34.6c2.2-3.5 4.5-6.7 6.5-9.1" style="stroke:rgb(25, 168, 230);animation-play-state:paused" ></path>
<path stroke-miterlimit="10" stroke-linejoin="round" stroke-linecap="round" stroke-width="3.5" stroke="#fff" fill="none" d="M34.1 43.2l.9-2.1" style="stroke:rgb(25, 168, 230);animation-play-state:paused" ></path>
<path stroke-miterlimit="10" stroke-width="3.5" stroke="#000" opacity=".1" d="M67.2 32.6c-6.4 24.3-17.5 43.8-30.1 53.7 3.7 2.5 8.1 3.6 12.9 3.6 13.6 0 24.6-9.4 24.6-32.9-.1-8.4-3.3-16.9-7.4-24.4z" style="stroke:rgba(255, 255, 255, 0.255);fill:rgba(255, 255, 255, 0.255);animation-play-state:paused" ></path>
<metadata xmlns:d="https://loading.io/stock/" style="animation-play-state:paused" ><d:name style="animation-play-state:paused" >water</d:name>


<d:tags style="animation-play-state:paused" >water,dip,drop,drip,wet,moist,rain,damp,humid,clammy</d:tags>


<d:license style="animation-play-state:paused" >by</d:license>


<d:slug style="animation-play-state:paused" >r5q9g4</d:slug></metadata></g><!-- generated by https://loading.io/ --></svg>