<?xml version="1.0" encoding="utf-8"?><svg xml:space="preserve" viewBox="0 0 100 100" y="0" x="0" xmlns="http://www.w3.org/2000/svg" id="圖層_1" version="1.1" width="267px" height="267px" xmlns:xlink="http://www.w3.org/1999/xlink" style="width:100%;height:100%;background-size:initial;background-repeat-y:initial;background-repeat-x:initial;background-position-y:initial;background-position-x:initial;background-origin:initial;background-color:initial;background-clip:initial;background-attachment:initial;animation-play-state:paused" ><g class="ldl-scale" style="transform-origin:50% 50%;transform:rotate(0deg) scale(0.37, 0.37);animation-play-state:paused" ><path fill="#d1d1d1" d="M86.251 69.912c1.732-.321 3.105-.982 4.157-1.995 1.388-1.336 2.092-3.181 2.092-5.485 0-3.099-1.879-5.358-3.291-6.788a3.684 3.684 0 0 0-2.621-1.094l-.073.001c1.767-.852 3.286-2.038 4.022-3.581.83-1.739.6-3.674-.614-5.174-.516-.639-1.1-1.033-1.911-1.291 2.218-2.139 2.21-5.432 2.204-8.134l-.001-.486c0-.67-.144-6.722-5.288-12.775-6.59-7.755-17.935-11.692-33.722-11.7h-.052c-15.763 0-27.095 3.935-33.681 11.695-5.137 6.054-5.286 12.108-5.286 12.779v.07c0 2.893 0 7.013 2.963 9.116-1.11.311-1.46.565-1.73.761-2.273 1.65-2.122 3.671-1.952 4.462.403 1.874 1.764 2.728 3.206 3.21a3.684 3.684 0 0 0-2.591.927C9.816 56.441 7.5 58.965 7.5 62.431c0 1.835.761 6.129 7.503 8.01-.942.388-1.792 1.04-2.315 2.139-1.555 3.264-1.274 6.995.772 10.237 2.18 3.453 5.932 5.774 9.337 5.774h57.091c2.984 0 6.048-1.692 8.198-4.525 2.405-3.171 3.183-7.141 2.134-10.893-.508-1.821-1.989-2.726-3.969-3.261z" style="fill:rgba(209, 209, 209, 0);animation-play-state:paused" ></path>
<path fill="#464646" d="M50.401 73.649c19.389-2.477 35.867-.926 36.272.518 1.591 5.689-3.052 10.74-6.783 10.74H22.797c-3.731 0-9.325-5.408-6.783-10.74.93-1.951 17.709 1.612 34.387-.518zM15.584 48.812c-2.541 1.844 4.97 1.091 6.783 3.714 1.706 2.468 3.718 6.165 4.834 5.138 1.696-1.561 5.935-5.863 21.951-4.997 2.462.133 30.307-.141 30.307-.141 3.731 0 9.189-2.446 7.597-4.413-.405-.5-6.407-.623-37.149-1.792-16.712-.635-33.393 1.817-34.323 2.491zM85.08 42.15c-.736-.054-1.586-.099-2.591-.151-3.473-.18-9.21-.394-18.715-.749-3.915-.146-8.461-.316-13.736-.516-1.86-.071-3.8-.106-5.766-.106-8.627 0-16.166.685-19.892 1.093-2.632.289-4.593.555-6.067.797-2.456-.653-2.438-3.386-2.438-6.634 0 0 0-20.808 35.331-20.789 35.339.02 35.326 20.789 35.326 20.789-.002 2.815.102 5.243-1.452 6.266zm-56.068-6.015c0-.624-.928-1.131-2.073-1.131s-2.073.506-2.073 1.131c0 .624.928 1.131 2.073 1.131 1.145-.001 2.073-.507 2.073-1.131zm7.139-6.501c0-.624-.928-1.131-2.073-1.131s-2.073.506-2.073 1.131.928 1.131 2.073 1.131 2.073-.506 2.073-1.131zm5.088 3.769c0-.624-.928-1.131-2.073-1.131s-2.073.506-2.073 1.131c0 .624.928 1.131 2.073 1.131 1.144-.001 2.073-.507 2.073-1.131zm7.459-13.096a1.14 1.14 0 0 0-1.147-1.131c-.633 0-1.147.506-1.147 1.131s.514 1.131 1.147 1.131 1.147-.506 1.147-1.131zm6.65 8.197c0-.624-.928-1.131-2.072-1.131-1.145 0-2.073.506-2.073 1.131 0 .624.928 1.131 2.073 1.131 1.144-.001 2.072-.507 2.072-1.131zm10.668-4.805c0-.78-.971-1.413-2.167-1.413-1.196 0-2.167.633-2.167 1.413s.971 1.413 2.167 1.413c1.196 0 2.167-.633 2.167-1.413zm5.653 9.044c0-.624-.928-1.131-2.072-1.131-1.145 0-2.073.506-2.073 1.131 0 .624.928 1.131 2.073 1.131 1.143 0 2.072-.506 2.072-1.131zm14.919 25.492c-2.319 1.165-5.138 1.725-7.129 1.725-.147.002-18.102.177-26.351.177h-.001c-3.022 0-3.808-.023-4.138-.041a72.446 72.446 0 0 0-3.864-.109c-11.06 0-14.161 2.872-15.486 4.097l-.13.12a4.008 4.008 0 0 1-2.717 1.069c-2.741 0-4.373-2.495-6.262-5.383-.289-.441-.574-.879-.853-1.285-.51-.349-2.134-.685-2.929-.85-.708-.146-1.478-.308-2.2-.572-1.971 1.751-3.344 3.378-3.344 5.248 0 2.593 2.701 4.05 5.847 4.714 16.001 3.384 45.738-3.129 63.493-.899 7.16.899 8.29-1.222 8.29-3.815.001-1.49-.873-2.827-2.226-4.196z" style="fill:rgb(255, 196, 18);animation-play-state:paused" ></path>
<metadata xmlns:d="https://loading.io/stock/" style="animation-play-state:paused" ><d:name style="animation-play-state:paused" >burger</d:name>
<d:tags style="animation-play-state:paused" >fastfood,eat,dinner,lunch,hungry,fat,burger,map</d:tags>
<d:license style="animation-play-state:paused" >free</d:license>
<d:slug style="animation-play-state:paused" >625m18</d:slug></metadata></g><!-- generated by https://loading.io/ --></svg>